# xmcd
#
# Track frame offsets:
#	150
#	19016
#	32084
#	49622
#	63812
#	81281
#	98320
#	114822
#	127610
#	144163
#	163068
#	176325
#	191288
#	208784
#	228576
#
# Disc length: 3315 seconds
#
# Revision: 2
# Processed by: cddbd v1.5.2PL0 Copyright (c) Steve Scherf et al.
# Submitted via: audiograbber 1.83.01
#
DISCID=ab0cf10f
DTITLE=Revise - CB9056
DYEAR=1900
DGENRE=Karaoke
TTITLE0=Black, Clint - Nothin But The Taillights
TTITLE1=Black, Clint - A Good Run Of Bad Luck
TTITLE2=Black, Clint - Desperado
TTITLE3=Black, Clint - Half The Man
TTITLE4=Black, Clint - Half Way Up
TTITLE5=Black, Clint - Like The Rain
TTITLE6=Black, Clint - Loosen Up My Strings
TTITLE7=Black, Clint - One Emotion
TTITLE8=Black, Clint - Shoes You're Wearing, The
TTITLE9=Black, Clint - Something That We Do
TTITLE10=Black, Clint - Summer's Comin
TTITLE11=Black, Clint - This Nightlife
TTITLE12=Black, Clint - You Don't Need Me Now
TTITLE13=Black, Clint - Wherever You Go
TTITLE14=Duets Clint Black and Martina MCBride - Still Holding On
EXTD=
EXTT0=
EXTT1=
EXTT2=
EXTT3=
EXTT4=
EXTT5=
EXTT6=
EXTT7=
EXTT8=
EXTT9=
EXTT10=
EXTT11=
EXTT12=
EXTT13=
EXTT14=
PLAYORDER=
